<?xml version="1.0" standalone="no"?>
<!DOCTYPE svg PUBLIC "-//W3C//DTD SVG 20010904//EN"
 "http://www.w3.org/TR/2001/REC-SVG-20010904/DTD/svg10.dtd">
<svg version="1.0" xmlns="http://www.w3.org/2000/svg"
 width="1200.000000pt" height="1200.000000pt" viewBox="0 0 1200.000000 1200.000000"
 preserveAspectRatio="xMidYMid meet">
<metadata>
Created by potrace 1.14, written by Peter Selinger 2001-2017
</metadata>
<g transform="translate(0.000000,1200.000000) scale(0.100000,-0.100000)"
fill="#000000" stroke="none">
<path d="M5090 9432 c-20 -9 -43 -32 -53 -52 -17 -33 -18 -67 -11 -590 l7
-555 -113 -225 -114 -225 -4 -93 c-5 -102 5 -141 46 -172 24 -20 46 -20 1152
-20 1106 0 1128 0 1152 20 41 31 51 70 46 172 l-4 93 -112 222 -112 223 0 574
c0 562 0 574 -20 599 -12 15 -38 31 -58 37 -24 6 -340 10 -902 10 -804 0 -867
-1 -900 -18z m1798 -74 c9 -9 12 -152 12 -584 l0 -572 100 -201 100 -201
-1100 0 -1100 0 92 185 93 185 705 0 c536 0 709 3 718 12 18 18 14 46 -7 58
-13 6 -253 10 -710 10 l-691 0 0 553 c0 305 3 557 7 560 3 4 403 7 888 7 672
0 884 -3 893 -12z m242 -1697 c0 -41 -5 -65 -16 -75 -14 -14 -129 -16 -1114
-16 -985 0 -1100 2 -1114 16 -11 10 -16 34 -16 75 l0 59 1130 0 1130 0 0 -59z"/>
<path d="M5230 9293 c-8 -3 -23 -12 -32 -21 -17 -14 -18 -49 -18 -463 l0 -448
26 -20 c26 -21 33 -21 794 -21 761 0 768 0 794 21 l26 20 0 448 c0 443 0 448
-21 467 -20 18 -49 19 -788 21 -421 1 -773 -1 -781 -4z m1520 -483 l0 -410
-750 0 -750 0 0 410 0 410 750 0 750 0 0 -410z"/>
<path d="M6031 9081 c-33 -31 -38 -50 -19 -69 19 -19 42 -14 71 16 29 31 34
51 15 70 -18 18 -33 15 -67 -17z"/>
<path d="M5938 8951 c-50 -16 -95 -50 -124 -93 -26 -39 -29 -51 -29 -124 0
-71 3 -85 27 -122 64 -96 201 -128 300 -69 41 24 68 52 68 71 0 3 -15 22 -32
42 -26 29 -33 46 -33 79 0 33 7 50 33 79 17 20 32 41 32 47 0 14 -48 58 -84
76 -35 18 -121 26 -158 14z m96 -71 c7 0 20 -6 29 -13 16 -11 16 -14 -3 -52
-25 -49 -25 -108 0 -164 11 -24 20 -45 20 -47 0 -2 -18 -8 -40 -14 -113 -30
-215 77 -181 189 6 20 22 47 35 60 27 26 94 52 114 46 8 -3 19 -5 26 -5z"/>
<path d="M6618 8239 c-24 -13 -23 -46 1 -59 28 -14 174 -13 189 2 18 18 14 46
-7 58 -25 13 -161 13 -183 -1z"/>
<path d="M5158 8089 c-24 -13 -23 -46 1 -59 45 -24 131 -4 131 30 0 34 -90 54
-132 29z"/>
<path d="M5376 8084 c-9 -8 -16 -19 -16 -24 0 -21 34 -40 71 -40 50 0 79 15
79 40 0 11 -9 24 -19 30 -30 15 -97 12 -115 -6z"/>
<path d="M5608 8089 c-24 -13 -23 -46 1 -59 45 -24 131 -4 131 30 0 34 -90 54
-132 29z"/>
<path d="M5826 8084 c-9 -8 -16 -19 -16 -24 0 -21 34 -40 71 -40 50 0 79 15
79 40 0 11 -9 24 -19 30 -30 15 -97 12 -115 -6z"/>
<path d="M6058 8089 c-24 -13 -23 -46 1 -59 45 -24 131 -4 131 30 0 34 -90 54
-132 29z"/>
<path d="M6276 8084 c-9 -8 -16 -19 -16 -24 0 -21 34 -40 71 -40 50 0 79 15
79 40 0 11 -9 24 -19 30 -30 15 -97 12 -115 -6z"/>
<path d="M6508 8089 c-24 -13 -23 -46 1 -59 45 -24 131 -4 131 30 0 34 -90 54
-132 29z"/>
<path d="M6726 8084 c-9 -8 -16 -19 -16 -24 0 -21 34 -40 71 -40 50 0 79 15
79 40 0 11 -9 24 -19 30 -30 15 -97 12 -115 -6z"/>
<path d="M5268 7939 c-24 -13 -23 -46 1 -59 11 -5 36 -10 56 -10 46 0 75 15
75 40 0 11 -9 24 -19 30 -25 13 -91 13 -113 -1z"/>
<path d="M5498 7939 c-21 -12 -23 -40 -6 -57 7 -7 33 -12 58 -12 49 0 70 13
70 42 0 33 -81 52 -122 27z"/>
<path d="M5718 7939 c-24 -13 -23 -46 1 -59 12 -6 120 -10 281 -10 269 0 300
4 300 40 0 11 -9 24 -19 30 -26 13 -540 13 -563 -1z"/>
<path d="M6398 7939 c-21 -12 -23 -40 -6 -57 7 -7 33 -12 58 -12 49 0 70 13
70 42 0 33 -81 52 -122 27z"/>
<path d="M6618 7939 c-24 -13 -23 -46 1 -59 11 -5 36 -10 56 -10 46 0 75 15
75 40 0 11 -9 24 -19 30 -25 13 -91 13 -113 -1z"/>
<path d="M7850 6260 l0 -280 50 0 50 0 0 58 c0 50 4 62 26 82 16 16 28 21 32
14 4 -6 29 -43 56 -82 l50 -72 58 0 c32 0 58 2 58 5 0 3 -36 54 -81 115 l-81
110 50 58 c27 31 59 66 71 76 32 29 26 35 -35 34 -56 -2 -56 -2 -124 -75 -37
-40 -71 -73 -74 -73 -3 0 -6 70 -6 155 l0 155 -50 0 -50 0 0 -280z"/>
<path d="M4852 6518 c-21 -21 -14 -66 12 -84 52 -33 114 36 71 80 -19 19 -66
21 -83 4z"/>
<path d="M9352 6518 c-21 -21 -14 -66 12 -84 52 -33 114 36 71 80 -19 19 -66
21 -83 4z"/>
<path d="M2450 6245 l0 -265 45 0 45 0 2 188 3 187 26 -95 c23 -87 28 -95 52
-98 25 -3 27 1 61 105 l34 108 1 -197 1 -198 45 0 45 0 0 265 0 265 -64 0 -65
0 -16 -57 c-9 -32 -22 -76 -29 -98 l-13 -40 -23 98 -24 97 -63 0 -63 0 0 -265z"/>
<path d="M6910 6470 l0 -40 80 0 80 0 0 -225 0 -225 50 0 50 0 0 225 0 225 85
0 85 0 0 40 0 40 -215 0 -215 0 0 -40z"/>
<path d="M5240 6425 c0 -48 -1 -48 -62 -47 -26 1 -28 -2 -28 -39 l0 -39 45 0
45 0 0 -119 c0 -106 2 -121 23 -152 28 -43 76 -61 142 -53 90 10 96 13 93 48
-3 29 -5 31 -48 33 -25 1 -53 2 -62 2 -39 2 -48 28 -48 136 l0 104 73 3 72 3
0 35 0 35 -60 1 c-33 1 -66 2 -72 3 -8 1 -13 17 -13 46 l0 45 -50 0 -50 0 0
-45z"/>
<path d="M2972 6360 c-31 -14 -47 -29 -57 -54 -8 -20 -15 -38 -15 -41 0 -3 20
-5 45 -5 34 0 50 6 69 25 14 14 36 25 49 25 33 0 66 -29 69 -60 3 -24 1 -25
-74 -31 -105 -9 -150 -38 -163 -106 -8 -46 17 -98 57 -119 44 -23 118 -23 153
0 25 17 29 17 37 2 6 -11 23 -16 56 -16 l47 0 -3 117 c-3 157 -9 197 -34 229
-44 55 -154 71 -236 34z m168 -233 c0 -43 -26 -67 -78 -74 -33 -4 -42 -2 -56
18 -20 30 -20 31 5 63 18 22 28 26 75 26 l54 0 0 -33z"/>
<path d="M3434 6361 c-76 -35 -97 -102 -49 -160 24 -28 52 -40 161 -70 71 -19
82 -63 20 -79 -43 -12 -92 1 -120 31 -14 15 -31 23 -47 21 -13 -1 -30 -3 -36
-3 -25 -2 -12 -44 22 -77 46 -43 122 -60 200 -44 62 13 114 54 116 92 4 84
-21 108 -156 142 -70 19 -80 24 -83 45 -8 53 79 71 124 26 32 -32 114 -37 114
-7 0 53 -81 102 -170 102 -32 0 -72 -8 -96 -19z"/>
<path d="M3872 6360 c-31 -14 -47 -29 -57 -54 -8 -20 -15 -38 -15 -41 0 -3 20
-5 45 -5 34 0 50 6 69 25 14 14 36 25 49 25 33 0 66 -29 69 -60 3 -24 1 -25
-74 -31 -105 -9 -150 -38 -163 -106 -8 -46 17 -98 57 -119 44 -23 118 -23 153
0 25 17 29 17 37 2 6 -11 23 -16 56 -16 l47 0 -3 117 c-3 157 -9 197 -34 229
-44 55 -154 71 -236 34z m168 -233 c0 -43 -26 -67 -78 -74 -33 -4 -42 -2 -56
18 -20 30 -20 31 5 63 18 22 28 26 75 26 l54 0 0 -33z"/>
<path d="M4230 6179 l0 -199 45 0 44 0 3 158 3 157 25 0 25 0 3 -157 3 -158
44 0 44 0 3 157 c3 145 4 158 22 161 10 2 22 -2 27 -10 5 -7 9 -79 9 -160 l0
-148 46 0 46 0 -4 174 c-3 169 -4 175 -27 200 -28 30 -75 34 -109 10 -20 -14
-24 -14 -38 0 -22 23 -74 20 -100 -5 -21 -20 -22 -20 -28 -2 -5 15 -16 19 -46
20 l-40 1 0 -199z"/>
<path d="M4730 6333 l0 -43 55 0 55 0 0 -115 0 -115 -55 0 -55 0 0 -40 0 -40
160 0 160 0 0 39 0 40 -52 3 -53 3 -5 155 -5 155 -102 1 -103 1 0 -44z"/>
<path d="M5684 6361 c-76 -35 -97 -102 -49 -160 24 -28 52 -40 161 -70 71 -19
82 -63 20 -79 -43 -12 -92 1 -120 31 -14 15 -31 23 -47 21 -13 -1 -30 -3 -36
-3 -25 -2 -12 -44 22 -77 46 -43 122 -60 200 -44 62 13 114 54 116 92 4 84
-21 108 -156 142 -70 19 -80 24 -83 45 -8 53 79 71 124 26 32 -32 114 -37 114
-7 0 53 -81 102 -170 102 -32 0 -72 -8 -96 -19z"/>
<path d="M6060 6228 c0 -164 9 -204 55 -234 43 -28 115 -24 159 10 l36 27 0
-25 c0 -24 3 -26 45 -26 l45 0 0 199 0 200 -50 -2 -50 -1 0 -141 c0 -123 -2
-144 -17 -157 -26 -23 -65 -29 -93 -15 -25 12 -25 15 -30 162 l-5 150 -47 1
-48 1 0 -149z"/>
<path d="M7472 6360 c-31 -14 -47 -29 -57 -54 -8 -20 -15 -38 -15 -41 0 -3 20
-5 45 -5 34 0 50 6 69 25 14 14 36 25 49 25 33 0 66 -29 69 -60 3 -24 1 -25
-74 -31 -105 -9 -150 -38 -163 -106 -8 -46 17 -98 57 -119 44 -23 118 -23 153
0 25 17 29 17 37 2 6 -11 23 -16 56 -16 l47 0 -3 117 c-3 157 -9 197 -34 229
-44 55 -154 71 -236 34z m168 -233 c0 -43 -26 -67 -78 -74 -33 -4 -42 -2 -56
18 -20 30 -20 31 5 63 18 22 28 26 75 26 l54 0 0 -33z"/>
<path d="M8372 6360 c-31 -14 -47 -29 -57 -54 -8 -20 -15 -38 -15 -41 0 -3 20
-5 45 -5 34 0 50 6 69 25 14 14 36 25 49 25 33 0 66 -29 69 -60 3 -24 1 -25
-74 -31 -105 -9 -150 -38 -163 -106 -8 -46 17 -98 57 -119 44 -23 118 -23 153
0 25 17 29 17 37 2 6 -11 23 -16 56 -16 l47 0 -3 117 c-3 157 -9 197 -34 229
-44 55 -154 71 -236 34z m168 -233 c0 -43 -26 -67 -78 -74 -33 -4 -42 -2 -56
18 -20 30 -20 31 5 63 18 22 28 26 75 26 l54 0 0 -33z"/>
<path d="M8730 6179 l0 -199 45 0 44 0 3 158 3 157 25 0 25 0 3 -157 3 -158
44 0 44 0 3 157 c3 145 4 158 22 161 10 2 22 -2 27 -10 5 -7 9 -79 9 -160 l0
-148 46 0 46 0 -4 174 c-3 169 -4 175 -27 200 -28 30 -75 34 -109 10 -20 -14
-24 -14 -38 0 -22 23 -74 20 -100 -5 -21 -20 -22 -20 -28 -2 -5 15 -16 19 -46
20 l-40 1 0 -199z"/>
<path d="M9230 6333 l0 -43 55 0 55 0 0 -115 0 -115 -55 0 -55 0 0 -40 0 -40
160 0 160 0 0 39 0 40 -52 3 -53 3 -5 155 -5 155 -102 1 -103 1 0 -44z"/>
<path d="M4560 4930 c0 -263 0 -270 20 -270 15 0 20 7 20 27 l0 26 23 -21 c51
-48 136 -48 186 -1 58 54 73 186 32 273 -42 85 -141 108 -212 49 l-29 -25 0
106 c0 99 -1 106 -20 106 -20 0 -20 -7 -20 -270z m208 64 c34 -24 53 -70 54
-133 1 -72 -16 -125 -49 -151 -45 -35 -120 -22 -160 30 -8 9 -12 51 -13 109 0
93 0 93 34 127 27 27 42 34 73 34 21 0 49 -7 61 -16z"/>
<path d="M3663 5148 c3 -13 20 -128 38 -256 31 -220 34 -233 53 -230 18 3 24
23 57 201 20 109 38 200 41 202 2 3 19 -77 37 -178 43 -237 40 -227 62 -227
21 0 18 -13 59 274 35 246 35 236 12 236 -15 0 -21 -23 -41 -182 -13 -101 -27
-191 -30 -201 -4 -10 -18 46 -35 135 -43 239 -45 248 -65 248 -14 0 -23 -30
-51 -182 -18 -101 -36 -192 -40 -202 -4 -11 -16 54 -29 150 -32 241 -30 234
-53 234 -16 0 -19 -5 -15 -22z"/>
<path d="M7240 5090 l0 -50 -55 0 c-41 0 -55 -4 -55 -14 0 -11 15 -16 53 -18
l52 -3 5 -147 c5 -136 7 -148 28 -171 38 -40 162 -46 162 -8 0 13 -9 15 -54
13 -44 -3 -58 0 -75 17 -19 19 -21 32 -21 161 l0 140 70 0 c56 0 70 3 70 15 0
12 -14 15 -70 15 l-70 0 0 50 c0 43 -3 50 -20 50 -17 0 -20 -7 -20 -50z"/>
<path d="M4236 5040 c-101 -31 -154 -186 -100 -291 33 -66 120 -107 193 -90
55 12 105 49 91 66 -9 11 -18 9 -47 -11 -88 -59 -203 -5 -215 102 l-3 29 144
3 144 3 -7 46 c-9 65 -34 104 -86 131 -47 23 -67 26 -114 12z m99 -42 c15 -7
35 -29 46 -50 34 -67 33 -68 -101 -68 -132 0 -135 2 -105 60 32 62 98 86 160
58z"/>
<path d="M5517 5036 c-49 -18 -62 -30 -86 -80 -46 -94 -18 -232 56 -278 70
-42 173 -21 213 45 25 41 25 57 0 57 -11 0 -20 -6 -20 -14 0 -8 -10 -27 -23
-42 -33 -38 -110 -45 -151 -13 -37 29 -56 76 -56 139 0 62 19 110 55 138 54
43 144 20 166 -43 8 -22 20 -35 31 -35 47 0 -3 92 -65 120 -49 23 -69 24 -120
6z"/>
<path d="M6035 5035 c-22 -8 -50 -26 -62 -40 l-23 -26 0 35 c0 29 -4 36 -20
36 -19 0 -20 -7 -20 -190 0 -183 1 -190 20 -190 19 0 20 7 20 125 0 142 10
174 63 202 18 9 55 17 84 17 40 0 53 4 56 17 8 30 -52 37 -118 14z"/>
<path d="M6386 5040 c-101 -31 -154 -186 -100 -291 33 -66 120 -107 193 -90
55 12 105 49 91 66 -9 11 -18 9 -47 -11 -88 -59 -203 -5 -215 102 l-3 29 144
3 144 3 -7 46 c-9 65 -34 104 -86 131 -47 23 -67 26 -114 12z m99 -42 c15 -7
35 -29 46 -50 34 -67 33 -68 -101 -68 -132 0 -135 2 -105 60 32 62 98 86 160
58z"/>
<path d="M6809 5041 c-45 -14 -68 -31 -84 -61 -19 -37 -19 -40 3 -40 10 0 24
11 31 24 32 58 145 63 188 7 7 -9 13 -33 13 -53 l0 -38 -67 0 c-73 -1 -133
-17 -163 -45 -22 -20 -35 -73 -25 -104 24 -77 148 -100 226 -42 l27 20 6 -24
c4 -15 14 -25 24 -25 16 0 17 11 15 133 -2 72 -6 146 -8 163 -7 39 -39 69 -90
83 -45 12 -59 13 -96 2z m151 -240 c0 -42 -4 -53 -30 -74 -94 -79 -239 -12
-175 81 20 27 63 40 143 41 l62 1 0 -49z"/>
<path d="M7666 5040 c-75 -24 -121 -109 -114 -213 4 -69 32 -119 84 -154 37
-24 124 -21 167 6 102 63 104 278 3 340 -39 24 -101 33 -140 21z m118 -51 c40
-31 56 -71 56 -139 0 -99 -46 -160 -122 -160 -76 0 -128 64 -128 158 0 64 13
97 51 133 39 37 102 40 143 8z"/>
<path d="M8185 5035 c-22 -8 -50 -26 -62 -40 l-23 -26 0 35 c0 29 -4 36 -20
36 -19 0 -20 -7 -20 -190 0 -183 1 -190 20 -190 19 0 20 7 20 125 0 142 10
174 63 202 18 9 55 17 84 17 40 0 53 4 56 17 8 30 -52 37 -118 14z"/>
<path d="M3000 4140 l0 -60 3000 0 3000 0 0 60 0 60 -3000 0 -3000 0 0 -60z"/>
</g>
</svg>
